# xmcd
#
# Track frame offsets: 
#        150
#        12375
#        33082
#        76158
#        95744
#
# Disc length: 1577 seconds
#
# Revision: 0
# Processed by: cddbd v1.5.2PL0 Copyright (c) Steve Scherf et al.
# Submitted via: ExactAudioCopy v1.0b3
#
DISCID=2e062705
DTITLE=The Outcrops - Demo
DYEAR=2017
DGENRE=Blues
TTITLE0=Death at My Door
TTITLE1=Wishing Well
TTITLE2=Whiskey Breath - Key to the Highway
TTITLE3=Strawberry Girl
TTITLE4=Sasquatch
EXTD=
EXTT0=
EXTT1=
EXTT2=
EXTT3=
EXTT4=
PLAYORDER=
